<svg width="400" height="120" viewBox="0 0 400 120" fill="none" xmlns="http://www.w3.org/2000/svg" role="img" aria-labelledby="title desc">
  <title id="title">M2 Soluções com IA</title>
  <desc id="desc">Logo horizontal da M2 Soluções com IA sem repetição do texto M2.</desc>
  <defs>
    <linearGradient id="orbit" x1="22" y1="18" x2="112" y2="102" gradientUnits="userSpaceOnUse">
      <stop stop-color="#22D3EE"/>
      <stop offset="0.48" stop-color="#0EA5E9"/>
      <stop offset="0.78" stop-color="#7C3AED"/>
      <stop offset="1" stop-color="#F97316"/>
    </linearGradient>
    <linearGradient id="two" x1="78" y1="36" x2="118" y2="86" gradientUnits="userSpaceOnUse">
      <stop stop-color="#22D3EE"/>
      <stop offset="1" stop-color="#0284C7"/>
    </linearGradient>
    <linearGradient id="ia" x1="320" y1="72" x2="366" y2="72" gradientUnits="userSpaceOnUse">
      <stop stop-color="#22D3EE"/>
      <stop offset="1" stop-color="#7C3AED"/>
    </linearGradient>
    <linearGradient id="tri" x1="63" y1="80" x2="82" y2="60" gradientUnits="userSpaceOnUse">
      <stop stop-color="#7C3AED"/>
      <stop offset="1" stop-color="#2563EB"/>
    </linearGradient>
    <filter id="shadow" x="0" y="0" width="150" height="120" filterUnits="userSpaceOnUse" color-interpolation-filters="sRGB">
      <feDropShadow dx="0" dy="8" stdDeviation="7" flood-color="#071629" flood-opacity="0.18"/>
    </filter>
  </defs>

  <g filter="url(#shadow)">
    <path d="M35 30C48 16 73 12 94 24" stroke="url(#orbit)" stroke-width="5" stroke-linecap="round"/>
    <path d="M39 88C54 104 85 106 105 89" stroke="url(#orbit)" stroke-width="5" stroke-linecap="round"/>
    <circle cx="96" cy="25" r="6" fill="#22D3EE"/>
    <path d="M31 78V38H44L61 58L78 38H91V78H80V54L64 72H58L42 54V78H31Z" fill="#F8FAFC"/>
    <path d="M113 84H77V74L91 64C96 60 99 57 99 53C99 49 96 47 92 47C87 47 84 50 80 54L72 47C78 40 84 37 94 37C106 37 114 43 114 53C114 61 110 66 102 72L97 75H113V84Z" fill="url(#two)"/>
    <path d="M63 78L82 58V78H63Z" fill="url(#tri)"/>
  </g>

  <text x="145" y="66" fill="#071629" font-family="Poppins, Open Sans, Arial, sans-serif" font-size="28" font-weight="800" letter-spacing="3">SOLUÇÕES COM</text>
  <text x="333" y="66" fill="url(#ia)" font-family="Poppins, Open Sans, Arial, sans-serif" font-size="28" font-weight="800" letter-spacing="3">IA</text>
</svg>
