<svg width="1024" height="1024" viewBox="0 0 1024 1024" fill="none" xmlns="http://www.w3.org/2000/svg" role="img" aria-labelledby="title desc">
  <title id="title">M2 Soluções com IA</title>
  <desc id="desc">Símbolo quadrado da marca M2 Soluções com IA.</desc>
  <defs>
    <linearGradient id="bg" x1="96" y1="80" x2="928" y2="944" gradientUnits="userSpaceOnUse">
      <stop stop-color="#020617"/>
      <stop offset="0.48" stop-color="#071629"/>
      <stop offset="1" stop-color="#0B1D36"/>
    </linearGradient>
    <linearGradient id="rim" x1="78" y1="86" x2="945" y2="930" gradientUnits="userSpaceOnUse">
      <stop stop-color="#22D3EE"/>
      <stop offset="0.46" stop-color="#0EA5E9"/>
      <stop offset="0.78" stop-color="#7C3AED"/>
      <stop offset="1" stop-color="#F97316"/>
    </linearGradient>
    <linearGradient id="two" x1="610" y1="358" x2="828" y2="660" gradientUnits="userSpaceOnUse">
      <stop stop-color="#22D3EE"/>
      <stop offset="1" stop-color="#0284C7"/>
    </linearGradient>
    <linearGradient id="tri" x1="458" y1="672" x2="592" y2="520" gradientUnits="userSpaceOnUse">
      <stop stop-color="#7C3AED"/>
      <stop offset="1" stop-color="#2563EB"/>
    </linearGradient>
    <filter id="shadow" x="120" y="130" width="780" height="780" filterUnits="userSpaceOnUse" color-interpolation-filters="sRGB">
      <feDropShadow dx="0" dy="34" stdDeviation="30" flood-color="#020617" flood-opacity="0.42"/>
    </filter>
  </defs>

  <rect x="24" y="24" width="976" height="976" rx="220" fill="url(#bg)"/>
  <rect x="34" y="34" width="956" height="956" rx="210" stroke="url(#rim)" stroke-width="20"/>
  <path d="M246 297C356 168 584 150 750 252" stroke="url(#rim)" stroke-width="28" stroke-linecap="round"/>
  <path d="M253 753C388 892 631 903 783 771" stroke="url(#rim)" stroke-width="28" stroke-linecap="round"/>
  <circle cx="764" cy="261" r="28" fill="#22D3EE"/>

  <g filter="url(#shadow)">
    <path d="M220 668V350H322L512 566L702 350H804V668H710V486L546 686H478L314 486V668H220Z" fill="#F8FAFC"/>
    <path d="M829 736H528V653L650 561C690 531 711 507 711 476C711 443 688 423 652 423C615 423 584 442 550 480L480 416C529 356 586 328 664 328C765 328 834 383 834 465C834 531 800 574 732 623L693 653H829V736Z" fill="url(#two)"/>
    <path d="M447 690L604 518V690H447Z" fill="url(#tri)"/>
  </g>
</svg>
