<svg width="512" height="512" viewBox="0 0 512 512" fill="none" xmlns="http://www.w3.org/2000/svg" role="img" aria-labelledby="title desc">
  <title id="title">Ícone WhatsApp M2</title>
  <desc id="desc">Ícone da M2 para WhatsApp e redes sociais</desc>
  <defs>
    <linearGradient id="bg" x1="64" y1="48" x2="448" y2="464" gradientUnits="userSpaceOnUse">
      <stop stop-color="#071629"/>
      <stop offset="0.55" stop-color="#0B2A4D"/>
      <stop offset="1" stop-color="#128C7E"/>
    </linearGradient>
    <linearGradient id="ring" x1="110" y1="110" x2="402" y2="402" gradientUnits="userSpaceOnUse">
      <stop stop-color="#38BDF8"/>
      <stop offset="0.55" stop-color="#25D366"/>
      <stop offset="1" stop-color="#7C3AED"/>
    </linearGradient>
    <filter id="bubbleShadow" x="70" y="78" width="372" height="372" filterUnits="userSpaceOnUse" color-interpolation-filters="sRGB">
      <feDropShadow dx="0" dy="24" stdDeviation="18" flood-color="#020617" flood-opacity="0.26"/>
    </filter>
  </defs>
  <rect width="512" height="512" rx="128" fill="url(#bg)"/>
  <circle cx="394" cy="118" r="18" fill="#25D366"/>
  <circle cx="120" cy="392" r="13" fill="#38BDF8"/>
  <g filter="url(#bubbleShadow)">
    <path d="M132 370L154 300C137 270 132 236 140 204C156 137 223 96 290 112C357 128 398 195 382 262C366 329 299 370 232 354C209 349 188 339 170 325L132 370Z" fill="#071629" fill-opacity="0.76"/>
    <path d="M132 370L154 300C137 270 132 236 140 204C156 137 223 96 290 112C357 128 398 195 382 262C366 329 299 370 232 354C209 349 188 339 170 325L132 370Z" stroke="url(#ring)" stroke-width="20" stroke-linejoin="round"/>
    <path d="M184 284V194H211L256 249L301 194H328V284H302V234L268 276H244L210 234V284H184Z" fill="#FFFFFF"/>
    <path d="M340 326H262V305L295 281C306 273 311 267 311 259C311 250 305 245 296 245C286 245 278 250 269 260L251 243C264 227 280 219 301 219C327 219 345 234 345 256C345 274 336 286 317 300L306 308H340V326Z" fill="#38BDF8"/>
  </g>
</svg>
