<svg width="512" height="512" viewBox="0 0 512 512" fill="none" xmlns="http://www.w3.org/2000/svg" role="img" aria-labelledby="title desc">
  <title id="title">Ícone de conversa M2</title>
  <desc id="desc">Ícone da M2 para WhatsApp e canais de atendimento.</desc>
  <defs>
    <linearGradient id="bg" x1="54" y1="46" x2="458" y2="466" gradientUnits="userSpaceOnUse">
      <stop stop-color="#020617"/>
      <stop offset="0.54" stop-color="#071629"/>
      <stop offset="1" stop-color="#0B2A4D"/>
    </linearGradient>
    <linearGradient id="bubble" x1="68" y1="72" x2="448" y2="438" gradientUnits="userSpaceOnUse">
      <stop stop-color="#22D3EE"/>
      <stop offset="0.42" stop-color="#0EA5E9"/>
      <stop offset="0.78" stop-color="#7C3AED"/>
      <stop offset="1" stop-color="#22C55E"/>
    </linearGradient>
    <linearGradient id="two" x1="298" y1="184" x2="406" y2="342" gradientUnits="userSpaceOnUse">
      <stop stop-color="#22D3EE"/>
      <stop offset="1" stop-color="#0284C7"/>
    </linearGradient>
    <linearGradient id="tri" x1="220" y1="332" x2="284" y2="254" gradientUnits="userSpaceOnUse">
      <stop stop-color="#7C3AED"/>
      <stop offset="1" stop-color="#2563EB"/>
    </linearGradient>
    <filter id="shadow" x="34" y="44" width="448" height="432" filterUnits="userSpaceOnUse" color-interpolation-filters="sRGB">
      <feDropShadow dx="0" dy="24" stdDeviation="18" flood-color="#020617" flood-opacity="0.32"/>
    </filter>
  </defs>

  <rect width="512" height="512" rx="128" fill="url(#bg)"/>
  <g filter="url(#shadow)">
    <path d="M82 396L108 314C91 282 87 247 97 213C119 137 195 91 273 108C351 125 401 198 386 276C371 354 299 408 219 398C197 395 176 388 157 378L82 396Z" stroke="url(#bubble)" stroke-width="22" stroke-linejoin="round"/>
    <path d="M135 334V176H185L256 260L327 176H377V334H329V242L270 316H242L183 242V334H135Z" fill="#F8FAFC"/>
    <path d="M410 374H286V336L338 297C355 284 364 274 364 260C364 245 354 236 338 236C321 236 307 244 293 260L258 228C279 202 305 189 343 189C387 189 417 214 417 253C417 284 401 304 370 327L351 341H410V374Z" fill="url(#two)"/>
    <path d="M218 350L290 270V350H218Z" fill="url(#tri)"/>
    <circle cx="206" cy="394" r="12" fill="#7C3AED"/>
    <circle cx="256" cy="394" r="12" fill="#0EA5E9"/>
    <circle cx="306" cy="394" r="12" fill="#22D3EE"/>
  </g>
</svg>
